<?xml version="1.0" encoding="utf-8"?>
<!-- Generator: Adobe Illustrator 16.0.0, SVG Export Plug-In . SVG Version: 6.00 Build 0)  -->
<!DOCTYPE svg PUBLIC "-//W3C//DTD SVG 1.1//EN" "http://www.w3.org/Graphics/SVG/1.1/DTD/svg11.dtd">
<svg version="1.1" xmlns="http://www.w3.org/2000/svg" xmlns:xlink="http://www.w3.org/1999/xlink" x="0px" y="0px" width="1118px"
	 height="802.82px" viewBox="0 0 1118 802.82" enable-background="new 0 0 1118 802.82" xml:space="preserve">
<g id="a329d3bf-4b11-4261-9182-40685c3b1c8f">
	<title>Savings</title>
	<ellipse opacity="0.1" fill="#6C63FF" enable-background="new    " cx="559" cy="734.874" rx="559" ry="67.946"/>
	<path opacity="0.1" fill="#6C63FF" enable-background="new    " d="M637.139,95.078c-55.236-1.918-107.847-19.75-158.083-39.26
		S379.059,14.693,325.145,4.355c-34.677-6.649-74.333-7.59-102.273,11.002c-26.888,17.891-35.575,48.775-40.247,77.432
		c-3.514,21.56-5.58,44.251,4.049,64.435c6.685,14.013,18.556,25.792,26.764,39.214c28.563,46.704,8.375,104.296-22.579,149.898
		c-14.52,21.392-31.361,41.799-42.565,64.57c-11.205,22.771-16.388,48.865-6.585,72.094c9.716,23.023,32.871,40.318,57.953,52.482
		c50.942,24.703,110.973,31.775,169.51,35.779c129.58,8.865,259.85,5.027,389.774,1.184c48.081-1.424,96.375-2.865,143.675-10.299
		c26.267-4.129,53.386-10.684,72.455-26.502c24.208-20.084,30.208-54.09,13.987-79.271c-27.21-42.238-102.441-52.73-121.459-98.06
		c-10.469-24.951,0.282-52.745,15.495-75.886c32.635-49.642,87.337-93.193,90.218-149.935c1.979-38.971-24.317-78-64.977-96.438
		C865.721,16.726,806.622,19.157,775.181,51.15C742.806,84.095,685.91,96.771,637.139,95.078z"/>
	<ellipse fill="#FBD56F" cx="542.563" cy="664.533" rx="37.557" ry="39.865"/>
	<ellipse opacity="0.1" enable-background="new    " cx="542.563" cy="664.533" rx="37.557" ry="39.865"/>
	<ellipse fill="#FBD56F" cx="549.045" cy="665.42" rx="37.557" ry="38.978"/>
	<path fill="#FBD56F" d="M564.257,700.744l-3.907-2.176c0,0-1.827,7.625-1.229,13.061c0.12,1.129,0.933,2.063,2.034,2.338
		c8.987,2.232,51.82,11.74,81.275-1.652c0.869-0.396,1.464-1.223,1.565-2.172c0.361-3.34-0.918-10.23-1.429-11.574
		C641.468,695.679,564.257,700.744,564.257,700.744z"/>
	<path opacity="0.1" enable-background="new    " d="M564.257,700.744l-3.907-2.176c0,0-1.827,7.625-1.229,13.061
		c0.12,1.129,0.933,2.063,2.034,2.338c8.987,2.232,51.82,11.74,81.275-1.652c0.869-0.396,1.464-1.223,1.565-2.172
		c0.361-3.34-0.918-10.23-1.429-11.574C641.468,695.679,564.257,700.744,564.257,700.744z"/>
	<ellipse fill="#FBD56F" cx="601.458" cy="698.569" rx="41.108" ry="9.267"/>
	<path fill="#FBD56F" d="M579.962,687.072l-3.906-2.176c0,0-1.827,7.627-1.23,13.061c0.121,1.129,0.934,2.063,2.035,2.338
		c8.986,2.232,51.82,11.74,81.274-1.652c0.869-0.396,1.465-1.223,1.565-2.172c0.361-3.34-0.917-10.23-1.428-11.574
		C657.174,682.007,579.962,687.072,579.962,687.072z"/>
	<path opacity="0.1" enable-background="new    " d="M579.962,687.072l-3.906-2.176c0,0-1.827,7.627-1.23,13.061
		c0.121,1.129,0.934,2.063,2.035,2.338c8.986,2.232,51.82,11.74,81.274-1.652c0.869-0.396,1.465-1.223,1.565-2.172
		c0.361-3.34-0.917-10.23-1.428-11.574C657.174,682.007,579.962,687.072,579.962,687.072z"/>
	<ellipse fill="#FBD56F" cx="617.164" cy="684.897" rx="41.108" ry="9.267"/>
	<path fill="#FBD56F" d="M593.847,669.103l-3.906-2.176c0,0-1.827,7.627-1.23,13.061c0.121,1.129,0.934,2.063,2.034,2.338
		c8.987,2.232,51.821,11.74,81.275-1.652c0.869-0.396,1.465-1.223,1.565-2.172c0.361-3.34-0.917-10.23-1.428-11.574
		C671.059,664.039,593.847,669.103,593.847,669.103z"/>
	<path opacity="0.1" enable-background="new    " d="M593.847,669.103l-3.906-2.176c0,0-1.827,7.627-1.23,13.061
		c0.121,1.129,0.934,2.063,2.034,2.338c8.987,2.232,51.821,11.74,81.275-1.652c0.869-0.396,1.465-1.223,1.565-2.172
		c0.361-3.34-0.917-10.23-1.428-11.574C671.059,664.039,593.847,669.103,593.847,669.103z"/>
	<ellipse fill="#FBD56F" cx="631.049" cy="666.928" rx="41.108" ry="9.267"/>
	<path fill="#FBD56F" d="M578.471,650.398l-3.906-2.176c0,0-1.828,7.625-1.23,13.061c0.121,1.129,0.933,2.063,2.034,2.338
		c8.987,2.232,51.82,11.74,81.275-1.652c0.869-0.396,1.464-1.223,1.565-2.172c0.361-3.34-0.918-10.23-1.428-11.574
		C655.682,645.333,578.471,650.398,578.471,650.398z"/>
	<path opacity="0.1" enable-background="new    " d="M578.471,650.398l-3.906-2.176c0,0-1.828,7.625-1.23,13.061
		c0.121,1.129,0.933,2.063,2.034,2.338c8.987,2.232,51.82,11.74,81.275-1.652c0.869-0.396,1.464-1.223,1.565-2.172
		c0.361-3.34-0.918-10.23-1.428-11.574C655.682,645.333,578.471,650.398,578.471,650.398z"/>
	<ellipse fill="#FBD56F" cx="615.672" cy="648.223" rx="41.109" ry="9.267"/>
	<path fill="#FBD56F" d="M613.062,635.386l-3.906-2.176c0,0-1.827,7.627-1.23,13.061c0.121,1.129,0.934,2.063,2.034,2.338
		c8.987,2.232,51.821,11.74,81.275-1.652c0.869-0.396,1.464-1.223,1.565-2.172c0.361-3.34-0.917-10.23-1.428-11.574
		C690.273,630.322,613.062,635.386,613.062,635.386z"/>
	<path opacity="0.1" enable-background="new    " d="M613.062,635.386l-3.906-2.176c0,0-1.827,7.627-1.23,13.061
		c0.121,1.129,0.934,2.063,2.034,2.338c8.987,2.232,51.821,11.74,81.275-1.652c0.869-0.396,1.464-1.223,1.565-2.172
		c0.361-3.34-0.917-10.23-1.428-11.574C690.273,630.322,613.062,635.386,613.062,635.386z"/>
	<ellipse fill="#FBD56F" cx="650.264" cy="633.211" rx="41.108" ry="9.267"/>
	<path fill="#FBD56F" d="M589.69,625.296l-3.906-2.174c0,0-1.827,7.625-1.23,13.059c0.121,1.129,0.933,2.063,2.034,2.338
		c8.987,2.232,51.82,11.74,81.275-1.652c0.869-0.396,1.464-1.223,1.565-2.172c0.361-3.34-0.918-10.23-1.428-11.572
		C666.901,620.232,589.69,625.296,589.69,625.296z"/>
	<path opacity="0.1" enable-background="new    " d="M589.69,625.296l-3.906-2.174c0,0-1.827,7.625-1.23,13.059
		c0.121,1.129,0.933,2.063,2.034,2.338c8.987,2.232,51.82,11.74,81.275-1.652c0.869-0.396,1.464-1.223,1.565-2.172
		c0.361-3.34-0.918-10.23-1.428-11.572C666.901,620.232,589.69,625.296,589.69,625.296z"/>
	<ellipse fill="#FBD56F" cx="626.893" cy="623.122" rx="41.108" ry="9.267"/>
	<path fill="#FBD56F" d="M605.294,605.82l-3.906-2.176c0,0-1.827,7.625-1.23,13.059c0.121,1.129,0.934,2.063,2.034,2.338
		c8.987,2.232,51.821,11.742,81.275-1.652c0.869-0.396,1.464-1.221,1.565-2.172c0.361-3.338-0.917-10.23-1.428-11.572
		C682.506,600.753,605.294,605.82,605.294,605.82z"/>
	<path opacity="0.1" enable-background="new    " d="M605.294,605.82l-3.906-2.176c0,0-1.827,7.625-1.23,13.059
		c0.121,1.129,0.934,2.063,2.034,2.338c8.987,2.232,51.821,11.742,81.275-1.652c0.869-0.396,1.464-1.221,1.565-2.172
		c0.361-3.338-0.917-10.23-1.428-11.572C682.506,600.753,605.294,605.82,605.294,605.82z"/>
	<ellipse fill="#FBD56F" cx="642.496" cy="603.643" rx="41.108" ry="9.267"/>
	<path fill="#FBD56F" d="M612.991,582.699l-3.907-2.176c0,0-1.827,7.627-1.229,13.061c0.12,1.129,0.933,2.063,2.034,2.338
		c8.987,2.232,51.82,11.74,81.275-1.652c0.869-0.396,1.464-1.223,1.565-2.172c0.361-3.34-0.918-10.23-1.429-11.574
		C690.202,577.634,612.991,582.699,612.991,582.699z"/>
	<path opacity="0.1" enable-background="new    " d="M612.991,582.699l-3.907-2.176c0,0-1.827,7.627-1.229,13.061
		c0.12,1.129,0.933,2.063,2.034,2.338c8.987,2.232,51.82,11.74,81.275-1.652c0.869-0.396,1.464-1.223,1.565-2.172
		c0.361-3.34-0.918-10.23-1.429-11.574C690.202,577.634,612.991,582.699,612.991,582.699z"/>
	<ellipse fill="#FBD56F" cx="650.192" cy="580.524" rx="41.108" ry="9.267"/>
	<path fill="#FBD56F" d="M682.386,706.105l-3.907-2.174c0,0-1.827,7.625-1.229,13.059c0.12,1.129,0.933,2.063,2.034,2.338
		c8.987,2.232,51.82,11.74,81.275-1.652c0.869-0.396,1.464-1.221,1.565-2.172c0.361-3.34-0.918-10.23-1.429-11.572
		C759.597,701.041,682.386,706.105,682.386,706.105z"/>
	<path opacity="0.1" enable-background="new    " d="M682.386,706.105l-3.907-2.174c0,0-1.827,7.625-1.229,13.059
		c0.12,1.129,0.933,2.063,2.034,2.338c8.987,2.232,51.82,11.74,81.275-1.652c0.869-0.396,1.464-1.221,1.565-2.172
		c0.361-3.34-0.918-10.23-1.429-11.572C759.597,701.041,682.386,706.105,682.386,706.105z"/>
	<ellipse fill="#FBD56F" cx="719.587" cy="703.93" rx="41.108" ry="9.267"/>
	<path fill="#FBD56F" d="M696.271,688.136l-3.907-2.174c0,0-1.827,7.625-1.229,13.059c0.12,1.129,0.933,2.063,2.034,2.338
		c8.987,2.232,51.82,11.742,81.275-1.652c0.869-0.396,1.464-1.221,1.565-2.172c0.361-3.34-0.918-10.23-1.429-11.572
		C773.481,683.072,696.271,688.136,696.271,688.136z"/>
	<path opacity="0.1" enable-background="new    " d="M696.271,688.136l-3.907-2.174c0,0-1.827,7.625-1.229,13.059
		c0.12,1.129,0.933,2.063,2.034,2.338c8.987,2.232,51.82,11.742,81.275-1.652c0.869-0.396,1.464-1.221,1.565-2.172
		c0.361-3.34-0.918-10.23-1.429-11.572C773.481,683.072,696.271,688.136,696.271,688.136z"/>
	<ellipse fill="#FBD56F" cx="733.472" cy="685.961" rx="41.108" ry="9.267"/>
	<path fill="#FBD56F" d="M680.894,669.431l-3.906-2.174c0,0-1.827,7.625-1.229,13.059c0.12,1.129,0.933,2.063,2.034,2.338
		c8.986,2.232,51.82,11.74,81.274-1.652c0.869-0.396,1.465-1.223,1.566-2.172c0.36-3.34-0.918-10.23-1.429-11.572
		C758.105,664.367,680.894,669.431,680.894,669.431z"/>
	<path opacity="0.1" enable-background="new    " d="M680.894,669.431l-3.906-2.174c0,0-1.827,7.625-1.229,13.059
		c0.12,1.129,0.933,2.063,2.034,2.338c8.986,2.232,51.82,11.74,81.274-1.652c0.869-0.396,1.465-1.223,1.566-2.172
		c0.36-3.34-0.918-10.23-1.429-11.572C758.105,664.367,680.894,669.431,680.894,669.431z"/>
	<ellipse fill="#FBD56F" cx="718.096" cy="667.256" rx="41.108" ry="9.267"/>
	<path fill="#FBD56F" d="M715.485,654.421l-3.907-2.176c0,0-1.827,7.625-1.229,13.059c0.12,1.129,0.933,2.063,2.034,2.338
		c8.987,2.232,51.82,11.742,81.275-1.652c0.869-0.396,1.464-1.221,1.565-2.172c0.361-3.338-0.918-10.23-1.429-11.572
		C792.696,649.355,715.485,654.421,715.485,654.421z"/>
	<path opacity="0.1" enable-background="new    " d="M715.485,654.421l-3.907-2.176c0,0-1.827,7.625-1.229,13.059
		c0.12,1.129,0.933,2.063,2.034,2.338c8.987,2.232,51.82,11.742,81.275-1.652c0.869-0.396,1.464-1.221,1.565-2.172
		c0.361-3.338-0.918-10.23-1.429-11.572C792.696,649.355,715.485,654.421,715.485,654.421z"/>
	<ellipse fill="#FBD56F" cx="752.687" cy="652.245" rx="41.108" ry="9.267"/>
	<path fill="#FBD56F" d="M692.113,644.332l-3.906-2.176c0,0-1.827,7.625-1.229,13.059c0.12,1.129,0.933,2.063,2.034,2.34
		c8.986,2.23,51.82,11.74,81.275-1.652c0.868-0.396,1.464-1.223,1.565-2.172c0.36-3.34-0.918-10.232-1.429-11.574
		C769.325,639.267,692.113,644.332,692.113,644.332z"/>
	<path opacity="0.1" enable-background="new    " d="M692.113,644.332l-3.906-2.176c0,0-1.827,7.625-1.229,13.059
		c0.12,1.129,0.933,2.063,2.034,2.34c8.986,2.23,51.82,11.74,81.275-1.652c0.868-0.396,1.464-1.223,1.565-2.172
		c0.36-3.34-0.918-10.232-1.429-11.574C769.325,639.267,692.113,644.332,692.113,644.332z"/>
	<ellipse fill="#FBD56F" cx="729.315" cy="642.156" rx="41.108" ry="9.266"/>
	<path fill="#FBD56F" d="M707.718,624.853l-3.907-2.176c0,0-1.827,7.625-1.229,13.061c0.12,1.129,0.933,2.063,2.034,2.338
		c8.987,2.232,51.82,11.74,81.275-1.652c0.869-0.396,1.464-1.223,1.565-2.172c0.361-3.34-0.918-10.23-1.429-11.574
		C784.929,619.789,707.718,624.853,707.718,624.853z"/>
	<path opacity="0.1" enable-background="new    " d="M707.718,624.853l-3.907-2.176c0,0-1.827,7.625-1.229,13.061
		c0.12,1.129,0.933,2.063,2.034,2.338c8.987,2.232,51.82,11.74,81.275-1.652c0.869-0.396,1.464-1.223,1.565-2.172
		c0.361-3.34-0.918-10.23-1.429-11.574C784.929,619.789,707.718,624.853,707.718,624.853z"/>
	<ellipse fill="#FBD56F" cx="744.919" cy="622.678" rx="41.108" ry="9.267"/>
	<path fill="#FBD56F" d="M715.414,601.734l-3.906-2.176c0,0-1.827,7.625-1.23,13.059c0.121,1.129,0.934,2.063,2.034,2.338
		c8.987,2.232,51.821,11.742,81.275-1.652c0.869-0.396,1.464-1.221,1.565-2.172c0.361-3.34-0.918-10.23-1.428-11.572
		C792.626,596.667,715.414,601.734,715.414,601.734z"/>
	<path opacity="0.1" enable-background="new    " d="M715.414,601.734l-3.906-2.176c0,0-1.827,7.625-1.23,13.059
		c0.121,1.129,0.934,2.063,2.034,2.338c8.987,2.232,51.821,11.742,81.275-1.652c0.869-0.396,1.464-1.221,1.565-2.172
		c0.361-3.34-0.918-10.23-1.428-11.572C792.626,596.667,715.414,601.734,715.414,601.734z"/>
	<ellipse fill="#FBD56F" cx="752.616" cy="599.557" rx="41.108" ry="9.267"/>
	<ellipse fill="#FBD56F" cx="627.879" cy="721.411" rx="37.557" ry="39.866"/>
	<ellipse opacity="0.1" enable-background="new    " cx="627.879" cy="721.411" rx="37.557" ry="39.866"/>
	<ellipse fill="#FBD56F" cx="634.36" cy="722.299" rx="37.557" ry="38.978"/>
	<ellipse fill="#6C63FF" cx="90.143" cy="735.477" rx="46.386" ry="7.841"/>
	<path fill="#6C63FF" d="M109.323,722.648c1.986-1.846,3.85-4.023,4.422-6.674c0.572-2.65-0.558-5.83-3.09-6.797
		c-2.838-1.086-5.871,0.881-8.17,2.867s-4.935,4.254-7.944,3.834c3.148-2.854,4.568-7.15,3.74-11.318
		c-0.132-0.848-0.491-1.641-1.04-2.299c-1.575-1.686-4.432-0.961-6.318,0.365c-5.999,4.221-7.673,12.369-7.706,19.703
		c-0.605-2.645-0.096-5.402-0.111-8.115c-0.015-2.715-0.758-5.723-3.048-7.182c-1.426-0.768-3.03-1.145-4.648-1.092
		c-2.697-0.1-5.701,0.172-7.542,2.143c-2.289,2.451-1.695,6.563,0.296,9.262c1.991,2.697,5.019,4.389,7.806,6.252
		c2.235,1.332,4.143,3.15,5.578,5.32c0.169,0.303,0.307,0.621,0.414,0.951h16.906C102.663,727.945,106.18,725.515,109.323,722.648z"
		/>
	<path fill="#6C63FF" d="M509.621,684.343c2.066,2.83,3.757,5.916,5.027,9.182c0.336,0.844,0.665,1.73,0.977,2.662
		c4.997,14.934-2.922,32.844-5.186,30.912s-9.318-5.516-10.682-0.479c-1.364,5.037-6.403,10.186-6.403,10.186
		c-9.18,9.232-17.489-0.744-22.944-11.051c-1.782-3.402-3.366-6.902-4.745-10.486c-1.211-3.164-1.906-5.354-1.906-5.354
		l38.236-32.578C501.995,677.337,505.691,679.035,509.621,684.343z"/>
	<path fill="#6C63FF" d="M449.357,705.175c2.066,2.83,3.756,5.916,5.027,9.182c0.336,0.844,0.665,1.73,0.976,2.662
		c4.998,14.934-2.921,32.844-5.185,30.912s-9.318-5.516-10.683-0.479c-1.363,5.037-6.402,10.186-6.402,10.186
		c-9.181,9.232-17.49-0.744-22.944-11.051c-1.782-3.402-3.366-6.902-4.745-10.486c-1.211-3.164-1.907-5.354-1.907-5.354
		l38.237-32.578C441.731,698.169,445.428,699.867,449.357,705.175z"/>
	<path fill="#6C63FF" d="M328.354,733.957c-0.215,3.496-0.883,6.951-1.988,10.275c-0.28,0.865-0.593,1.758-0.948,2.672
		c-5.684,14.688-23.21,23.422-23.72,20.49c-0.51-2.932-3.654-10.193-7.918-7.186s-11.43,3.754-11.43,3.754
		c-12.96,1.25-12.991-11.732-10.612-23.15c0.798-3.754,1.813-7.461,3.038-11.1c1.088-3.211,1.949-5.338,1.949-5.338l50.229-0.68
		C326.954,723.695,328.717,727.361,328.354,733.957z"/>
	<path fill="#6C63FF" d="M263.455,717.587c-0.215,3.498-0.883,6.951-1.988,10.277c-0.28,0.863-0.593,1.756-0.947,2.672
		c-5.684,14.688-23.21,23.422-23.72,20.49c-0.51-2.932-3.654-10.193-7.918-7.188c-4.265,3.008-11.429,3.756-11.429,3.756
		c-12.96,1.25-12.991-11.734-10.612-23.15c0.799-3.756,1.813-7.463,3.039-11.102c1.088-3.209,1.948-5.338,1.948-5.338l50.229-0.68
		C262.056,707.326,263.818,710.992,263.455,717.587z"/>
	<path opacity="0.2" enable-background="new    " d="M509.621,684.343c2.066,2.83,3.757,5.916,5.027,9.182
		c0.336,0.844,0.665,1.73,0.977,2.662c4.997,14.934-2.922,32.844-5.186,30.912s-9.318-5.516-10.682-0.479
		c-1.364,5.037-6.403,10.186-6.403,10.186c-9.18,9.232-17.489-0.744-22.944-11.051c-1.782-3.402-3.366-6.902-4.745-10.486
		c-1.211-3.164-1.906-5.354-1.906-5.354l38.236-32.578C501.995,677.337,505.691,679.035,509.621,684.343z"/>
	<path opacity="0.2" enable-background="new    " d="M449.357,705.175c2.066,2.83,3.756,5.916,5.027,9.182
		c0.336,0.844,0.665,1.73,0.976,2.662c4.998,14.934-2.921,32.844-5.185,30.912s-9.318-5.516-10.683-0.479
		c-1.363,5.037-6.402,10.186-6.402,10.186c-9.181,9.232-17.49-0.744-22.944-11.051c-1.782-3.402-3.366-6.902-4.745-10.486
		c-1.211-3.164-1.907-5.354-1.907-5.354l38.237-32.578C441.731,698.169,445.428,699.867,449.357,705.175z"/>
	<path opacity="0.2" enable-background="new    " d="M328.354,733.957c-0.215,3.496-0.883,6.951-1.988,10.275
		c-0.28,0.865-0.593,1.758-0.948,2.672c-5.684,14.688-23.21,23.422-23.72,20.49c-0.51-2.932-3.654-10.193-7.918-7.186
		s-11.43,3.754-11.43,3.754c-12.96,1.25-12.991-11.732-10.612-23.15c0.798-3.754,1.813-7.461,3.038-11.1
		c1.088-3.211,1.949-5.338,1.949-5.338l50.229-0.68C326.954,723.695,328.717,727.361,328.354,733.957z"/>
	<path opacity="0.2" enable-background="new    " d="M263.455,717.587c-0.215,3.498-0.883,6.951-1.988,10.277
		c-0.28,0.863-0.593,1.756-0.947,2.672c-5.684,14.688-23.21,23.422-23.72,20.49c-0.51-2.932-3.654-10.193-7.918-7.188
		c-4.265,3.008-11.429,3.756-11.429,3.756c-12.96,1.25-12.991-11.734-10.612-23.15c0.799-3.756,1.813-7.463,3.039-11.102
		c1.088-3.209,1.948-5.338,1.948-5.338l50.229-0.68C262.056,707.326,263.818,710.992,263.455,717.587z"/>
	<path fill="#6C63FF" d="M611.616,497.455c0,134.158-45.384,242.916-254.82,242.916c-140.733,0-249.612-34.969-254.82-242.916
		c-3.359-134.118,114.086-242.917,254.82-242.917S611.616,363.295,611.616,497.455z"/>
	<path opacity="0.2" enable-background="new    " d="M308.994,258.778h0.03c-0.007,0.004-0.014,0.007-0.022,0.008L308.994,258.778z"
		/>
	<path opacity="0.2" enable-background="new    " d="M309.492,258.697c0.647-0.104,1.927-0.283,3.787-0.424l-4.144,0.491
		c0.06-0.015,0.134-0.03,0.223-0.044C309.403,258.711,309.44,258.704,309.492,258.697z"/>
	<path opacity="0.2" enable-background="new    " d="M497.784,357.954l-18.601,6.695c-9.481-12.715-19.684-24.877-30.556-36.426
		c-11.866-12.657-24.814-24.255-38.695-34.663c-47.624-35.295-84.459-36.196-96.624-35.288l27.959-3.289
		c26.425,4.547,51.838,13.733,75.063,27.134c16.248,9.367,31.381,20.546,45.108,33.324
		C485.783,338.037,497.784,357.954,497.784,357.954z"/>
	<path opacity="0.2" enable-background="new    " d="M329.64,370.602c0,0-24.552-81.84-3.72-104.16c0,0,32.736-11.16,57.288,52.08
		L329.64,370.602z"/>
	<path fill="#6C63FF" d="M453.962,294.164c0,0,65.109-55.33,93.913-45.205c0,0,23.358,25.506-24.715,73.373L453.962,294.164z"/>
	<path opacity="0.2" enable-background="new    " d="M453.962,294.164c0,0,65.109-55.33,93.913-45.205
		c0,0,23.358,25.506-24.715,73.373L453.962,294.164z"/>
	<path fill="#6C63FF" d="M657,559.207c0,72.111-51.748,129.084-100.44,129.084c-48.691,0-75.888-56.973-75.888-129.084
		c0-72.113,39.554-127.754,88.164-130.572C645.84,424.169,657,487.093,657,559.207z"/>
	<path opacity="0.2" enable-background="new    " d="M657,559.207c0,72.111-51.748,129.084-100.44,129.084
		c-48.691,0-75.888-56.973-75.888-129.084c0-72.113,39.554-127.754,88.164-130.572C645.84,424.169,657,487.093,657,559.207z"/>
	<ellipse fill="#6C63FF" cx="553.584" cy="569.994" rx="16.368" ry="20.832"/>
	<ellipse fill="#6C63FF" cx="611.616" cy="552.138" rx="16.368" ry="20.832"/>
	<path fill="#FAD46F" d="M464.616,302.005c0.012,4.666-1.077,9.27-3.177,13.437c-2.771,5.537-7.268,10.023-12.812,12.782
		c-11.866-12.657-24.814-24.255-38.695-34.663c1.236-4.25,3.425-8.164,6.398-11.443c5.185-5.78,12.576-9.092,20.341-9.114
		C452.103,273.004,464.616,285.987,464.616,302.005z"/>
</g>
<g id="Layer_2">
	<g>
		<path fill="#FFB9B9" d="M959.046,651.234c0,0,7.529,32.762,19.258,39.824c11.729,7.061-28.627,20.451-28.627,20.451
			s-17.563,10.889-22.125,14.824c-4.563,3.938-24.113,12.361-20.891,6.105s8.883-18.152,17.824-28.037
			c8.939-9.885,20.693-27.578,10.455-41.359S959.046,651.234,959.046,651.234z"/>
		<path fill="#FF6584" d="M918.274,252.662l-3.947-1.41c0,0-10.148-1.408-19.449,10.432c-9.303,11.838-30.586,47.781-30.586,47.781
			l-7.895,18.604l27.908,0.846l21.002-46.23L918.274,252.662z"/>
		<path opacity="0.1" enable-background="new    " d="M918.274,252.662l-3.947-1.41c0,0-10.148-1.408-19.449,10.432
			c-9.303,11.838-30.586,47.781-30.586,47.781l-7.895,18.604l27.908,0.846l21.002-46.23L918.274,252.662z"/>
		<path fill="#2F2E41" d="M914.046,538.925c0,0,15.928,3.525,13.25,15.787c-2.68,12.262,16.631,28.189,18.463,30.867
			s4.51,3.807,2.818,7.893c-1.689,4.088,39.326,61.736,31.15,66.951s-74.42,25.652-80.34,21.564s-10.713-137.846-10.713-137.846
			L914.046,538.925z"/>
		<path opacity="0.1" enable-background="new    " d="M914.046,538.925c0,0,15.928,3.525,13.25,15.787
			c-2.68,12.262,16.631,28.189,18.463,30.867s4.51,3.807,2.818,7.893c-1.689,4.088,39.326,61.736,31.15,66.951
			s-74.42,25.652-80.34,21.564s-10.713-137.846-10.713-137.846L914.046,538.925z"/>
		<path fill="#FFB9B9" d="M877.823,684.384c0,0-9.867,32.137-3.242,44.117s-35.018,3.391-35.018,3.391s-20.656,0.645-26.576,1.771
			s-27.063-1.357-21.143-5.162c5.92-3.807,16.771-11.277,29.457-15.363c12.686-4.088,31.713-13.531,29.74-30.586
			S877.823,684.384,877.823,684.384z"/>
		<path fill="#2F2E41" d="M859.358,363.166c5.461-3.9,12.037-5.93,18.746-5.779c10.854,0.422,46.371,8.879,45.385,10.57
			c-0.973,1.488-2.057,2.902-3.242,4.229c0,0,2.256,10.289,1.27,11.275s19.309,24.244,7.471,74.139
			c-11.84,49.896-10.572,84.428-10.572,84.428s4.793,146.305-8.879,149.264s-67.514,0.986-70.051-4.793
			c-2.537-5.777,7.752-185.205,7.752-185.205s1.127-90.205,3.805-101.199S859.358,363.166,859.358,363.166z"/>
		<circle fill="#FFB9B9" cx="921.446" cy="201.85" r="33.968"/>
		<path fill="#FFB9B9" d="M916.302,224.332c0,0,21,20.578-4.934,36.506c-18.262,11.215,44.117-8.74,44.117-8.74
			s-12.969-33.122-10.994-40.732C946.464,203.753,916.302,224.332,916.302,224.332z"/>
		<path fill="#FF6584" d="M921.517,256.466c0,0,29.176-13.389,33.969-8.598c4.791,4.793,25.512,24.525,2.959,59.48
			c-22.551,34.955-26.92,61.172-30.727,64.131c-3.805,2.961-6.201-3.805-6.201-3.805s-10.994-10.008-18.182-10.008
			c-7.189,0-37.916,3.383-37.916,3.383l8.598-34.109c0,0-4.229-26.92,10.148-40.311s30.162-35.379,30.162-35.379l8.143-1.486
			l-5.377,6.846C917.093,256.611,916.302,258.722,921.517,256.466z"/>
		<path fill="#FFB9B9" d="M854.425,330.888c0,0-12.545,16.914-4.229,23.256s25.793-4.51,25.793-4.51s40.313,28.049,39.748,11.557
			c-0.564-16.49-29.459-27.906-29.459-27.906l-19.449,0.563l2.959-9.725l-8.174-0.846L854.425,330.888z"/>
		<path opacity="0.1" enable-background="new    " d="M854.425,330.888c0,0-12.545,16.914-4.229,23.256s25.793-4.51,25.793-4.51
			s40.313,28.049,39.748,11.557c-0.564-16.49-29.459-27.906-29.459-27.906l-19.449,0.563l2.959-9.725l-8.174-0.846L854.425,330.888z
			"/>
		<path fill="#FFB9B9" d="M938.571,298.33c0,0-79.213,61.029-84.287,39.605c-3.297-13.924-0.762-48.207,1.42-70.506
			c1.557-16.236,8.809-31.396,20.469-42.801c4.752-4.631,9.16-7.535,11.375-5.371c6.201,6.061-14.518,30.303-14.518,30.303
			s-3.383,49.191,3.383,54.83c0,0,24.51-23.668,29.592-23.322C911.087,281.416,938.571,298.33,938.571,298.33z"/>
		<path fill="#2F2E41" d="M991.04,233.613c-6.49-9.768-11.848-25.479-17.629-39.314c-1.873-4.484-3.584-9.027-5.262-13.59
			c-3.377-9.193-18.084-21.063-37.346-21.063c-22.016,0-39.863,11.079-39.863,20.375c0,7.685,12.205,14.162,28.873,16.178
			c-5.855,13.07-9.385,27.577-9.385,37.414c0,22.26,18.045,12.844,40.307,12.844C972.995,246.457,1003.356,252.154,991.04,233.613z"
			/>
		<path fill="#FF6584" d="M955.485,260.273c0,0,14.094,35.941-17.619,44.117c0,0-6.201-8.598-16.35-10.008s-19.17-11.98-19.17-11.98
			s20.721-29.176,36.93-29.74S955.485,260.273,955.485,260.273z"/>
	</g>
</g>
<g id="Layer_3">
	<g>
		<path fill="none" stroke="#535461" stroke-width="2" stroke-miterlimit="10" d="M956.486,753.179c0,0,29.154-37.1,26.797-73.906
			c-1.088-15.434,2.86-30.803,11.25-43.799c4.031-6.141,8.617-11.896,13.699-17.199"/>
		<path fill="#6C63FF" d="M1006.885,595.07c-2.055,5.152,1.313,23.814,1.313,23.814s15.289-11.219,17.346-16.371
			c2.043-5.156-0.481-10.994-5.639-13.037C1014.765,587.441,1008.946,589.941,1006.885,595.07L1006.885,595.07z"/>
		<path fill="#6C63FF" d="M980.079,617.455c1.074,5.443,14.044,19.277,14.044,19.277s6.737-17.727,5.663-23.168
			c-1.075-5.441-6.357-8.982-11.8-7.908C982.545,606.732,979.004,612.013,980.079,617.455L980.079,617.455z"/>
		<path fill="#6C63FF" d="M961.294,666.492c3.675,4.156,21.855,9.551,21.855,9.551s-3.133-18.703-6.808-22.857
			c-3.669-4.16-10.016-4.559-14.176-0.891c-4.161,3.668-4.56,10.016-0.891,14.176C961.281,666.478,961.288,666.484,961.294,666.492
			L961.294,666.492z"/>
		<path fill="#6C63FF" d="M955.437,706.794c2.92,4.717,19.927,13.107,19.927,13.107s0.072-18.965-2.848-23.68
			c-2.919-4.717-9.109-6.174-13.826-3.254C953.974,695.888,952.517,702.078,955.437,706.794L955.437,706.794z"/>
		<path fill="#6C63FF" d="M1013.313,645.546c-5.128,2.115-23.828-1.035-23.828-1.035s11.039-15.42,16.167-17.535
			c5.126-2.121,11,0.314,13.122,5.439c2.121,5.125-0.313,11-5.439,13.121C1013.327,645.541,1013.319,645.542,1013.313,645.546z"/>
		<path fill="#6C63FF" d="M1005.863,692.593c-5.525,0.484-22.427-8.117-22.427-8.117s15.147-11.41,20.674-11.895
			c5.524-0.492,10.403,3.588,10.896,9.111c0.492,5.525-3.587,10.404-9.112,10.896
			C1005.885,692.591,1005.874,692.591,1005.863,692.593z"/>
		<path fill="#6C63FF" d="M992.349,737.328c-5.364,1.41-23.476-4.211-23.476-4.211s13.002-13.805,18.366-15.217
			c5.364-1.41,10.857,1.795,12.269,7.158C1000.918,730.423,997.714,735.916,992.349,737.328L992.349,737.328z"/>
		<path opacity="0.25" enable-background="new    " d="M1006.885,595.07c-2.055,5.152,1.313,23.814,1.313,23.814
			s15.289-11.219,17.346-16.371c2.043-5.156-0.481-10.994-5.639-13.037C1014.765,587.441,1008.946,589.941,1006.885,595.07
			L1006.885,595.07z"/>
		<path opacity="0.25" enable-background="new    " d="M980.079,617.455c1.074,5.443,14.044,19.277,14.044,19.277
			s6.737-17.727,5.663-23.168c-1.075-5.441-6.357-8.982-11.8-7.908C982.545,606.732,979.004,612.013,980.079,617.455
			L980.079,617.455z"/>
		<path opacity="0.25" enable-background="new    " d="M961.294,666.492c3.675,4.156,21.855,9.551,21.855,9.551
			s-3.133-18.703-6.808-22.857c-3.669-4.16-10.016-4.559-14.176-0.891c-4.161,3.668-4.56,10.016-0.891,14.176
			C961.281,666.478,961.288,666.484,961.294,666.492L961.294,666.492z"/>
		<path opacity="0.25" enable-background="new    " d="M955.437,706.794c2.92,4.717,19.927,13.107,19.927,13.107
			s0.072-18.965-2.848-23.68c-2.919-4.717-9.109-6.174-13.826-3.254C953.974,695.888,952.517,702.078,955.437,706.794
			L955.437,706.794z"/>
		<path opacity="0.25" enable-background="new    " d="M1013.313,645.546c-5.128,2.115-23.828-1.035-23.828-1.035
			s11.039-15.42,16.167-17.535c5.126-2.121,11,0.314,13.122,5.439c2.121,5.125-0.313,11-5.439,13.121
			C1013.327,645.541,1013.319,645.542,1013.313,645.546z"/>
		<path opacity="0.25" enable-background="new    " d="M1005.863,692.593c-5.525,0.484-22.427-8.117-22.427-8.117
			s15.147-11.41,20.674-11.895c5.524-0.492,10.403,3.588,10.896,9.111c0.492,5.525-3.587,10.404-9.112,10.896
			C1005.885,692.591,1005.874,692.591,1005.863,692.593z"/>
		<path opacity="0.25" enable-background="new    " d="M992.349,737.328c-5.364,1.41-23.476-4.211-23.476-4.211
			s13.002-13.805,18.366-15.217c5.364-1.41,10.857,1.795,12.269,7.158C1000.918,730.423,997.714,735.916,992.349,737.328
			L992.349,737.328z"/>
		<path fill="none" stroke="#535461" stroke-width="2" stroke-miterlimit="10" d="M956.733,751.634c0,0,41.687-22.104,54.446-56.709
			c5.26-14.549,15.097-26.998,28.034-35.482c6.173-3.979,12.698-7.383,19.493-10.172"/>
		<path fill="#6C63FF" d="M1066.878,627.511c-3.967,3.877-8.45,22.303-8.45,22.303s18.523-4.061,22.49-7.938
			c3.962-3.883,4.025-10.242,0.144-14.203C1077.187,623.72,1070.843,623.648,1066.878,627.511z"/>
		<path fill="#6C63FF" d="M1033.3,637.115c-1.223,5.41,5.028,23.314,5.028,23.314s13.343-13.477,14.565-18.887
			c1.217-5.412-2.184-10.785-7.596-12.004C1039.895,628.324,1034.526,631.712,1033.3,637.115z"/>
		<path fill="#6C63FF" d="M996.256,674.332c1.676,5.289,16.109,17.588,16.109,17.588s4.716-18.367,3.04-23.656
			c-1.664-5.291-7.303-8.232-12.595-6.568c-5.291,1.664-8.232,7.303-6.568,12.594C996.247,674.304,996.252,674.318,996.256,674.332z
			"/>
		<path fill="#6C63FF" d="M974.569,708.804c0.758,5.494,12.905,20.057,12.905,20.057s7.752-17.307,6.994-22.803
			c-0.759-5.494-5.828-9.334-11.322-8.576C977.651,698.24,973.812,703.308,974.569,708.804L974.569,708.804L974.569,708.804z"/>
		<path fill="#6C63FF" d="M1052.3,676.261c-5.546-0.145-21.365-10.602-21.365-10.602s16.341-9.623,21.887-9.479
			c5.545,0.145,9.923,4.756,9.779,10.301S1057.845,676.406,1052.3,676.261L1052.3,676.261z"/>
		<path fill="#6C63FF" d="M1026.426,716.255c-5.248-1.797-17.214-16.51-17.214-16.51s18.472-4.293,23.72-2.496
			s8.046,7.508,6.249,12.756S1031.674,718.05,1026.426,716.255L1026.426,716.255z"/>
		<path fill="#6C63FF" d="M995.943,751.675c-5.477-0.885-19.757-13.363-19.757-13.363s17.48-7.352,22.957-6.469
			c5.476,0.885,9.199,6.041,8.315,11.516C1006.575,748.835,1001.419,752.558,995.943,751.675L995.943,751.675z"/>
	</g>
</g>
</svg>
